<?xml version="1.0" standalone="no"?>
<!DOCTYPE svg PUBLIC "-//W3C//DTD SVG 20010904//EN"
 "http://www.w3.org/TR/2001/REC-SVG-20010904/DTD/svg10.dtd">
<svg version="1.0" xmlns="http://www.w3.org/2000/svg"
 width="1000.000000pt" height="1080.000000pt" viewBox="0 0 1000.000000 1080.000000"
 preserveAspectRatio="xMidYMid meet">

<g transform="translate(0.000000,1080.000000) scale(0.100000,-0.100000)"
fill="#000000" stroke="none">
<path d="M1630 9490 c-191 -11 -284 -43 -410 -145 -114 -91 -193 -215 -230
-361 -20 -76 -20 -118 -20 -2849 0 -2733 0 -2773 20 -2849 56 -219 219 -396
436 -473 l79 -28 1328 -3 1327 -2 0 -170 0 -170 -345 0 c-376 0 -389 -2 -448
-58 -74 -71 -50 -207 46 -260 30 -16 125 -17 1587 -17 1462 0 1557 1 1587 17
42 23 80 74 88 119 15 81 -43 171 -121 190 -22 4 -191 9 -376 9 l-338 0 0 170
0 170 1099 2 c1093 3 1100 3 1127 24 49 36 67 70 72 131 3 48 0 64 -20 92 -12
19 -36 44 -51 55 l-28 21 -3242 5 -3242 5 -47 22 c-66 30 -143 105 -175 172
l-28 56 -3 378 -3 377 3700 0 3700 0 3 -284 c3 -269 4 -286 24 -312 40 -54 70
-69 138 -69 53 0 68 4 98 27 19 15 43 43 52 62 15 32 16 241 14 2723 l-3 2688
-27 76 c-49 137 -116 234 -220 317 -76 60 -142 94 -240 124 l-73 23 -3350 1
c-1842 0 -3411 -2 -3485 -6z m6871 -358 c70 -34 122 -84 160 -154 l34 -63 3
-2232 2 -2233 -3700 0 -3700 0 0 2208 c0 2422 -4 2254 59 2355 34 52 98 103
164 129 39 16 267 17 3487 15 l3445 -2 46 -23z m-2993 -6524 l2 -168 -510 0
-510 0 0 163 c0 90 3 167 7 170 3 4 232 6 507 5 l501 -3 3 -167z"/>
<path d="M2075 8806 c-125 -54 -125 -241 -1 -297 40 -18 134 -19 2926 -19
l2886 0 44 23 c65 33 85 66 85 142 0 69 -15 99 -69 139 l-27 21 -2907 2
c-2402 2 -2912 0 -2937 -11z"/>
<path d="M5754 8131 c-23 -11 -50 -33 -61 -52 -12 -19 -66 -160 -121 -314 -55
-154 -162 -451 -237 -660 -75 -209 -141 -391 -145 -405 -4 -14 -26 -74 -48
-135 -105 -287 -124 -342 -132 -365 -4 -14 -48 -133 -96 -265 -78 -210 -89
-248 -89 -305 0 -77 18 -109 81 -140 73 -36 162 -19 204 39 10 15 71 173 135
352 64 178 133 371 155 429 21 58 52 143 68 190 33 92 182 508 392 1090 115
320 131 371 127 413 -5 60 -30 95 -87 125 -53 27 -92 28 -146 3z"/>
<path d="M2064 5103 c-45 -22 -84 -87 -84 -140 0 -58 31 -116 75 -142 l36 -21
2911 0 2911 0 35 22 c39 24 71 86 72 137 0 53 -34 114 -79 139 l-39 22 -2903
-1 c-2598 0 -2907 -2 -2935 -16z"/>
<path d="M4755 3761 c-61 -37 -79 -67 -83 -134 -3 -53 0 -67 20 -97 13 -19 39
-45 57 -57 33 -22 42 -23 251 -23 209 0 218 1 251 23 92 62 108 185 34 263
-37 39 -70 44 -287 44 -190 0 -216 -2 -243 -19z"/>
<path d="M8565 3176 c-37 -16 -82 -68 -91 -102 -10 -40 2 -114 23 -143 11 -14
35 -37 54 -49 28 -20 44 -23 92 -20 36 3 67 12 85 24 34 25 72 98 72 139 0
113 -131 197 -235 151z"/>
<path d="M0 400 l0 -400 5000 0 5000 0 0 400 0 400 -5000 0 -5000 0 0 -400z
m2173 133 c-7 -2 -19 -2 -25 0 -7 3 -2 5 12 5 14 0 19 -2 13 -5z m-50 -18 c-3
-9 -8 -14 -10 -11 -3 3 -2 9 2 15 9 16 15 13 8 -4z m-1760 -114 c22 -61 43
-108 47 -104 4 4 25 56 45 116 21 59 42 107 47 107 11 0 8 -8 -42 -150 -23
-63 -43 -106 -53 -108 -10 -2 -26 28 -55 110 -22 62 -44 121 -48 132 -5 13 -3
17 6 14 8 -2 32 -55 53 -117z m517 89 c0 -23 4 -30 20 -30 11 0 20 -4 20 -10
0 -5 -10 -10 -21 -10 -20 0 -21 -4 -17 -71 3 -55 8 -74 23 -85 23 -17 14 -29
-13 -15 -11 6 -22 25 -26 42 -10 51 -7 209 4 209 6 0 10 -13 10 -30z m515 16
c25 -11 33 -19 29 -30 -7 -19 -5 -19 -40 -1 -36 18 -55 19 -78 2 -28 -21 -9
-45 49 -62 87 -25 108 -74 54 -127 -29 -29 -33 -30 -90 -25 -67 6 -74 9 -66
31 5 12 12 13 37 5 42 -15 97 -4 105 22 8 25 -9 46 -44 54 -52 11 -91 42 -91
72 1 64 60 90 135 59z m105 -16 c0 -25 4 -30 25 -30 16 0 25 -6 25 -15 0 -9
-9 -15 -25 -15 -25 0 -26 -1 -23 -62 3 -54 6 -64 26 -73 12 -5 22 -13 22 -18
0 -17 -31 -18 -55 -3 -24 16 -25 20 -25 131 0 96 3 115 15 115 10 0 15 -10 15
-30z m482 -32 l3 -62 36 32 c20 18 45 32 55 32 14 0 9 -9 -21 -40 l-39 -40 42
-60 c40 -57 41 -60 20 -60 -16 0 -32 14 -53 45 -16 25 -33 45 -37 45 -5 0 -8
-20 -8 -45 0 -38 -3 -45 -20 -45 -19 0 -20 7 -20 130 0 122 1 130 20 130 16 0
19 -8 22 -62z m193 30 c1 -20 -2 -24 -11 -17 -8 7 -14 6 -17 -3 -3 -7 -6 2 -6
20 -1 27 3 33 17 30 11 -2 17 -13 17 -30z m35 -2 c0 -13 -8 -30 -17 -37 -16
-13 -17 -12 -4 3 7 10 11 29 9 43 -3 13 -1 22 3 19 5 -3 9 -16 9 -28z m-79
-33 c13 -16 12 -17 -3 -4 -17 13 -22 21 -14 21 2 0 10 -8 17 -17z m-1502 -19
c12 -15 21 -40 21 -55 0 -29 0 -29 -65 -29 -71 0 -78 -7 -49 -49 15 -20 23
-23 65 -19 48 5 65 -4 33 -16 -69 -27 -134 19 -134 95 0 87 82 133 129 73z
m191 16 c17 -11 10 -13 -40 -10 -47 2 -75 -28 -75 -80 0 -55 26 -80 82 -80 27
0 42 -4 38 -10 -9 -15 -78 -12 -102 5 -50 35 -50 135 0 170 24 17 74 20 97 5z
m271 -19 c23 -23 29 -38 29 -71 0 -53 -42 -100 -90 -100 -48 0 -90 47 -90 100
0 53 42 100 90 100 22 0 41 -9 61 -29z m79 13 c0 -14 2 -14 22 0 24 17 38 20
38 9 0 -5 -14 -16 -30 -25 -29 -17 -30 -19 -30 -93 0 -43 -4 -75 -10 -75 -6 0
-10 40 -10 100 0 60 4 100 10 100 6 0 10 -7 10 -16z m537 1 c30 -21 44 -75 32
-120 -25 -88 -143 -88 -168 0 -20 72 20 135 84 135 17 0 40 -7 52 -15z m198
-5 c0 -9 -8 -14 -20 -13 -62 8 -98 -40 -75 -97 12 -30 36 -42 75 -37 12 1 20
-4 20 -13 0 -19 -48 -25 -85 -10 -63 26 -68 148 -6 179 31 15 91 9 91 -9z
m5374 -83 c8 -26 17 -47 21 -47 4 0 13 21 21 47 8 25 20 48 27 51 8 2 4 -19
-12 -63 -36 -99 -36 -99 -72 0 -16 44 -20 65 -12 63 7 -3 19 -26 27 -51z m638
38 c2 -6 -9 -11 -23 -10 -38 0 -39 -17 -1 -40 53 -33 33 -86 -26 -71 -38 9
-34 24 6 22 38 -1 43 19 8 37 -36 18 -48 42 -31 62 14 17 61 17 67 0z m333
-20 c0 -35 16 -47 26 -20 4 8 13 15 22 15 13 0 13 -3 -2 -19 -16 -18 -16 -21
-1 -50 19 -38 8 -40 -22 -3 l-22 27 -1 -27 c0 -16 -4 -28 -10 -28 -6 0 -10 30
-10 70 0 40 4 70 10 70 6 0 10 -16 10 -35z m580 32 c0 -4 -34 -104 -45 -136
-3 -8 -8 -11 -11 -8 -8 7 38 147 48 147 4 0 8 -2 8 -3z m100 -16 c-5 -11 -15
-23 -21 -26 -6 -5 -3 -13 10 -22 43 -30 9 -82 -45 -69 -35 9 -30 27 6 20 22
-5 31 -2 36 11 6 16 -3 28 -31 39 -6 2 -5 9 3 17 18 19 15 29 -8 29 -11 0 -20
5 -20 10 0 6 18 10 40 10 37 0 40 -2 30 -19z m110 0 c-5 -11 -15 -23 -20 -26
-6 -4 -2 -14 11 -24 40 -32 1 -82 -51 -66 -31 10 -23 25 10 19 22 -5 31 -2 36
11 6 16 -3 28 -31 39 -6 2 -5 9 3 17 18 19 15 29 -8 29 -11 0 -20 5 -20 10 0
6 18 10 40 10 37 0 40 -2 30 -19z m108 7 c21 -21 13 -45 -25 -77 l-38 -30 43
-1 c23 0 42 -4 42 -10 0 -5 -22 -10 -50 -10 -62 0 -65 15 -14 63 42 40 39 62
-8 53 -26 -5 -29 -4 -18 9 15 18 51 20 68 3z m114 -40 c2 -29 2 -61 0 -70 -5
-22 -22 -24 -22 -3 0 10 -10 15 -30 15 -16 0 -30 3 -30 6 0 16 56 104 67 104
6 0 13 -22 15 -52z m118 33 c-5 -11 -15 -23 -20 -26 -6 -4 -1 -14 12 -25 20
-15 21 -21 10 -44 -11 -26 -34 -32 -66 -20 -28 11 -17 24 14 18 22 -5 31 -2
36 11 6 16 -3 28 -31 39 -6 2 -5 9 3 17 18 19 15 29 -8 29 -11 0 -20 5 -20 10
0 6 18 10 40 10 37 0 40 -2 30 -19z m110 0 c-5 -11 -15 -23 -21 -26 -6 -5 -2
-13 11 -22 42 -29 8 -82 -43 -69 -37 9 -34 27 3 20 22 -5 31 -2 36 11 6 16 -3
28 -31 39 -6 2 -5 9 3 17 18 19 15 29 -8 29 -11 0 -20 5 -20 10 0 6 18 10 40
10 37 0 40 -2 30 -19z m80 -41 c0 -33 4 -60 10 -60 6 0 10 -4 10 -10 0 -5 -13
-10 -30 -10 -16 0 -30 5 -30 10 0 6 5 10 10 10 6 0 10 20 10 45 0 38 -2 43
-17 38 -16 -6 -16 -4 1 15 29 34 36 27 36 -38z m124 38 c44 -63 -17 -154 -68
-102 -9 9 -16 32 -16 54 0 64 52 94 84 48z m-2073 -36 c-15 -5 -14 -59 2 -65
6 -2 9 -8 5 -12 -13 -14 -36 15 -40 53 -7 54 0 67 24 45 11 -10 15 -19 9 -21z
m360 0 c-15 -5 -14 -59 2 -65 6 -2 9 -7 6 -11 -15 -17 -37 8 -41 47 -6 59 0
72 24 50 11 -10 15 -19 9 -21z m-533 6 c23 -23 13 -38 -24 -38 -45 0 -42 -24
4 -28 36 -4 34 -22 -3 -22 -30 0 -55 25 -55 54 0 28 18 46 45 46 12 0 26 -5
33 -12z m117 3 c3 -5 -9 -11 -27 -13 -28 -2 -33 -7 -33 -28 0 -21 5 -26 33
-28 36 -4 34 -22 -3 -22 -28 0 -55 24 -55 50 0 37 67 69 85 41z m169 -7 c31
-30 9 -84 -34 -84 -24 0 -50 26 -50 50 0 24 26 50 50 50 10 0 26 -7 34 -16z
m86 6 c0 -4 -7 -10 -15 -14 -9 -3 -15 -19 -15 -41 0 -19 -4 -35 -10 -35 -5 0
-10 22 -10 49 0 45 2 49 25 49 14 0 25 -4 25 -8z m274 -6 c31 -30 9 -84 -34
-84 -24 0 -50 26 -50 50 0 24 26 50 50 50 10 0 26 -7 34 -16z m113 9 c14 -6
10 -9 -17 -13 -29 -4 -35 -9 -35 -30 0 -21 6 -26 35 -30 27 -4 31 -7 17 -13
-10 -4 -25 -7 -32 -7 -20 0 -45 28 -45 50 0 22 25 50 45 50 7 0 22 -3 32 -7z
m250 0 c14 -6 10 -9 -17 -13 -29 -4 -35 -9 -35 -30 0 -21 5 -26 33 -28 36 -4
34 -22 -3 -22 -28 0 -55 24 -55 50 0 22 25 50 45 50 7 0 22 -3 32 -7z m107 -9
c21 -20 20 -43 -1 -66 -20 -22 -46 -23 -67 -2 -31 30 -9 84 34 84 10 0 26 -7
34 -16z m113 4 c7 -5 14 -5 18 2 10 16 42 12 49 -6 10 -25 7 -84 -4 -84 -5 0
-10 18 -10 41 0 33 -3 40 -17 37 -13 -2 -19 -14 -21 -41 -4 -50 -22 -47 -22 4
0 36 -2 40 -22 37 -19 -2 -24 -10 -26 -40 -5 -55 -22 -46 -22 10 0 48 0 49 33
49 17 0 37 -4 44 -9z m-327 -78 c0 -5 -4 -10 -10 -10 -5 0 -10 5 -10 10 0 6 5
10 10 10 6 0 10 -4 10 -10z"/>
<path d="M2150 500 c0 -5 5 -10 10 -10 6 0 10 5 10 10 0 6 -4 10 -10 10 -5 0
-10 -4 -10 -10z"/>
<path d="M536 418 c-28 -39 -21 -48 39 -48 48 0 55 3 55 19 0 48 -67 68 -94
29z"/>
<path d="M986 424 c-50 -50 -21 -144 44 -144 48 0 80 50 66 104 -13 53 -75 75
-110 40z"/>
<path d="M1616 408 c-32 -46 -8 -118 39 -118 28 0 55 34 55 70 0 36 -27 70
-55 70 -13 0 -31 -10 -39 -22z"/>
<path d="M9217 350 c-18 -29 -18 -30 2 -30 17 0 21 6 21 30 0 17 -1 30 -3 30
-1 0 -11 -13 -20 -30z"/>
<path d="M9634 365 c-9 -38 3 -75 26 -75 23 0 35 37 26 75 -4 16 -13 25 -26
25 -13 0 -22 -9 -26 -25z"/>
<path d="M7395 340 c-4 -6 5 -10 19 -10 14 0 26 5 26 10 0 6 -9 10 -19 10 -11
0 -23 -4 -26 -10z"/>
<path d="M7674 336 c-10 -26 4 -48 28 -44 17 2 23 10 23 28 0 18 -6 26 -23 28
-13 2 -25 -3 -28 -12z"/>
<path d="M8034 336 c-10 -26 4 -48 28 -44 17 2 23 10 23 28 0 18 -6 26 -23 28
-13 2 -25 -3 -28 -12z"/>
<path d="M8504 336 c-10 -26 4 -48 28 -44 17 2 23 10 23 28 0 18 -6 26 -23 28
-13 2 -25 -3 -28 -12z"/>
</g>
</svg>
